<!DOCTYPE svg PUBLIC "-//W3C//DTD SVG 1.1//EN" "http://www.w3.org/Graphics/SVG/1.1/DTD/svg11.dtd">
<!-- Uploaded to: SVG Repo, www.svgrepo.com, Transformed by: SVG Repo Mixer Tools -->
<svg fill="#facc15" height="214px" width="214px" version="1.1" id="Filled_Icons" xmlns="http://www.w3.org/2000/svg" xmlns:xlink="http://www.w3.org/1999/xlink" x="0px" y="0px" viewBox="0 0 24.00 24.00" enable-background="new 0 0 24 24" xml:space="preserve" stroke="#facc15" stroke-width="0.00024000000000000003">
<g id="SVGRepo_bgCarrier" stroke-width="0"/>
<g id="SVGRepo_tracerCarrier" stroke-linecap="round" stroke-linejoin="round" stroke="#CCCCCC" stroke-width="0.144"/>
<g id="SVGRepo_iconCarrier"> <g id="Status-Warning-Filled_1_"> <path d="M23.89,22.57L23.89,22.57l-11-22.02h-0.01C12.71,0.23,12.39,0,12,0s-0.71,0.23-0.88,0.55h-0.01L0.1,22.56l0.01,0.01 C0.04,22.7,0,22.84,0,23c0,0.55,0.45,1,1,1h22.02l0,0c0.54-0.01,0.98-0.45,0.98-1C24,22.84,23.96,22.7,23.89,22.57z M13.5,20h-3v-3 h3V20z M13.5,15h-3V7h3V15z"/> </g> </g>
</svg>